<svg width="54" height="52" viewBox="0 0 54 52" fill="none" xmlns="http://www.w3.org/2000/svg">
<path fill-rule="evenodd" clip-rule="evenodd" d="M44.4586 43.0549L30.8893 51.3379C28.242 45.7089 27.3178 41.2927 28.1165 38.0892C28.9152 34.8857 36.8272 24.7062 51.8526 7.55055L53.9882 8.08303C47.4361 18.1156 43.4564 25.9539 42.0491 31.5982C41.466 33.9372 42.2691 37.7561 44.4586 43.0549ZM17.4961 36.4944L3.92676 44.7774C1.27947 39.1484 0.355179 34.7322 1.1539 31.5287C1.95262 28.3252 9.86466 18.1457 24.89 0.990053L27.0257 1.52253C20.4735 11.5551 16.4938 19.3934 15.0866 25.0377C14.5034 27.3767 15.3065 31.1956 17.4961 36.4944Z" fill="#338CF5"/>
</svg>
